<svg xmlns="http://www.w3.org/2000/svg" width="44.394" height="44.393" viewBox="0 0 44.394 44.393"><path fill="#ABAB3A" d="M42.758.018L15.034 4.683C7.204 5.861 2.367 8.502.66 12.532c-1.91 4.518.843 8.979 1.733 10.236.918 1.301 1.778 2.12 1.833 2.175l1.863 1.7C-.171 35.399.917 42.731.997 43.223a1.404 1.404 0 0 0 1.617 1.152 1.414 1.414 0 0 0 1.154-1.621c-.07-.443-1-7.143 5.135-15.209.047-.037.102-.059.143-.105.091-.096.139-.213.195-.326 3.801-4.823 10.135-10.098 20.695-14.799.709-.313 1.029-1.146.715-1.858s-1.141-1.039-1.854-.717c-10.32 4.588-16.846 9.773-20.976 14.673l-1.683-1.54c-.012-.007-.707-.677-1.457-1.741-.678-.954-2.781-4.323-1.439-7.494 1.28-3.025 5.5-5.155 12.231-6.169l25.95-4.366c-.578 4.769-3.16 18.224-14.215 26.633a1.176 1.176 0 0 0-.146.127c-.236.236-5.984 5.764-14.002-1.041a1.394 1.394 0 0 0-1.977.166 1.412 1.412 0 0 0 .166 1.988c3.606 3.064 6.912 4.049 9.668 4.049 4.451 0 7.477-2.563 8.039-3.08C43.516 20.828 44.363 2.25 44.393 1.463A1.409 1.409 0 0 0 42.758.018zm0 0"/></svg>