<svg xmlns="http://www.w3.org/2000/svg" width="80.927" height="80.922" viewBox="0 0 80.927 80.922"><g fill="#DD9B32"><path d="M40.464 0C18.157 0 0 18.151 0 40.462c0 22.311 18.157 40.46 40.464 40.46 22.313 0 40.463-18.149 40.463-40.46S62.776 0 40.464 0zm0 76.293c-19.756 0-35.832-16.073-35.832-35.831S20.708 4.629 40.464 4.629c19.76 0 35.831 16.075 35.831 35.833S60.224 76.293 40.464 76.293zm0 0"/><path d="M48.437 34.156a2.315 2.315 0 0 0 0-4.63H34.806v-2.35a2.315 2.315 0 1 0-4.63 0v15.287c0 7.501 6.103 13.603 13.603 13.603h4.658a2.315 2.315 0 0 0 0-4.629h-4.658c-4.948 0-8.973-4.026-8.973-8.974v-8.306h13.631zm0 0"/></g></svg>