<?xml version="1.0" encoding="utf-8"?>
<!-- Generator: Adobe Illustrator 16.0.0, SVG Export Plug-In . SVG Version: 6.00 Build 0)  -->
<!DOCTYPE svg PUBLIC "-//W3C//DTD SVG 1.1//EN" "http://www.w3.org/Graphics/SVG/1.1/DTD/svg11.dtd">
<svg version="1.1" id="Capa_1" xmlns="http://www.w3.org/2000/svg" xmlns:xlink="http://www.w3.org/1999/xlink" x="0px" y="0px"
	 width="80.927px" height="80.922px" viewBox="0 0 80.927 80.922" enable-background="new 0 0 80.927 80.922" xml:space="preserve">
<g>
	<path fill="#DD9B32" d="M40.383,1.023c-21.701,0-39.356,17.655-39.356,39.356c0,21.7,17.655,39.356,39.356,39.356
		c21.699,0,39.354-17.657,39.354-39.356C79.737,18.678,62.082,1.023,40.383,1.023L40.383,1.023z M40.383,75.235
		c-19.216,0-34.854-15.638-34.854-34.855c0-19.218,15.638-34.854,34.854-34.854c19.219,0,34.853,15.636,34.853,34.854
		C75.235,59.597,59.602,75.235,40.383,75.235L40.383,75.235z M40.383,75.235"/>
	<path fill="#DD9B32" d="M49.497,19.022H44.16c-4.366,0-7.919,3.555-7.919,7.922v6.002h-4.975c-1.243,0-2.251,1.011-2.251,2.253
		c0,1.242,1.008,2.251,2.251,2.251h4.975v20.846c0,1.244,1.007,2.252,2.252,2.252c1.243,0,2.25-1.008,2.25-2.252V37.451h7.691
		c1.24,0,2.251-1.009,2.251-2.251c0-1.243-1.011-2.253-2.251-2.253h-7.691v-6.002c0-1.884,1.534-3.418,3.417-3.418h5.337
		c1.245,0,2.253-1.01,2.253-2.251C51.75,20.03,50.742,19.022,49.497,19.022L49.497,19.022z M49.497,19.022"/>
</g>
</svg>
