<?xml version="1.0" encoding="utf-8"?>
<!-- Generator: Adobe Illustrator 16.0.0, SVG Export Plug-In . SVG Version: 6.00 Build 0)  -->
<!DOCTYPE svg PUBLIC "-//W3C//DTD SVG 1.1//EN" "http://www.w3.org/Graphics/SVG/1.1/DTD/svg11.dtd">
<svg version="1.1" id="Capa_1" xmlns="http://www.w3.org/2000/svg" xmlns:xlink="http://www.w3.org/1999/xlink" x="0px" y="0px"
	 width="44.394px" height="44.393px" viewBox="0 0 44.394 44.393" enable-background="new 0 0 44.394 44.393" xml:space="preserve">
<path fill="#ABAB3A" d="M42.758,0.018L15.034,4.683C7.204,5.861,2.367,8.502,0.66,12.532c-1.91,4.518,0.843,8.979,1.733,10.236
	c0.918,1.301,1.778,2.12,1.833,2.175l1.863,1.7c-6.26,8.756-5.172,16.088-5.092,16.58c0.115,0.689,0.713,1.172,1.383,1.172
	c0.074,0,0.156-0.006,0.234-0.02c0.762-0.127,1.275-0.852,1.154-1.621c-0.07-0.443-1-7.143,5.135-15.209
	c0.047-0.037,0.102-0.059,0.143-0.105c0.091-0.096,0.139-0.213,0.195-0.326c3.801-4.823,10.135-10.098,20.695-14.799
	c0.709-0.313,1.029-1.146,0.715-1.858s-1.141-1.039-1.854-0.717c-10.32,4.588-16.846,9.773-20.976,14.673l-1.683-1.54
	c-0.012-0.007-0.707-0.677-1.457-1.741c-0.678-0.954-2.781-4.323-1.439-7.494c1.28-3.025,5.5-5.155,12.231-6.169l25.95-4.366
	c-0.578,4.769-3.16,18.224-14.215,26.633c-0.051,0.037-0.102,0.082-0.146,0.127c-0.236,0.236-5.984,5.764-14.002-1.041
	c-0.592-0.508-1.48-0.428-1.977,0.166c-0.502,0.596-0.428,1.488,0.166,1.988c3.606,3.064,6.912,4.049,9.668,4.049
	c4.451,0,7.477-2.563,8.039-3.08C43.516,20.828,44.363,2.25,44.393,1.463c0.018-0.423-0.158-0.832-0.477-1.114
	C43.6,0.069,43.174-0.048,42.758,0.018L42.758,0.018z M42.758,0.018"/>
</svg>
