<?xml version="1.0" encoding="utf-8"?>
<!-- Generator: Adobe Illustrator 16.0.0, SVG Export Plug-In . SVG Version: 6.00 Build 0)  -->
<!DOCTYPE svg PUBLIC "-//W3C//DTD SVG 1.1//EN" "http://www.w3.org/Graphics/SVG/1.1/DTD/svg11.dtd">
<svg version="1.1" id="Capa_1" xmlns="http://www.w3.org/2000/svg" xmlns:xlink="http://www.w3.org/1999/xlink" x="0px" y="0px"
	 width="80.927px" height="80.922px" viewBox="0 0 80.927 80.922" enable-background="new 0 0 80.927 80.922" xml:space="preserve">
<g>
	<path fill="#DD9B32" d="M40.464,0C18.157,0,0,18.151,0,40.462c0,22.311,18.157,40.46,40.464,40.46
		c22.313,0,40.463-18.149,40.463-40.46C80.927,18.151,62.776,0,40.464,0L40.464,0z M40.464,76.293
		c-19.756,0-35.832-16.073-35.832-35.831S20.708,4.629,40.464,4.629c19.76,0,35.831,16.075,35.831,35.833
		S60.224,76.293,40.464,76.293L40.464,76.293z M40.464,76.293"/>
	<path fill="#DD9B32" d="M48.437,34.156c1.279,0,2.314-1.034,2.314-2.314c0-1.278-1.035-2.316-2.314-2.316H34.806v-2.35
		c0-1.279-1.033-2.314-2.309-2.314c-1.285,0-2.321,1.035-2.321,2.314v15.287c0,7.501,6.103,13.603,13.603,13.603h4.658
		c1.279,0,2.314-1.038,2.314-2.315c0-1.278-1.035-2.314-2.314-2.314h-4.658c-4.948,0-8.973-4.026-8.973-8.974v-8.306H48.437z
		 M48.437,34.156"/>
</g>
</svg>
